<?xml version="1.0" encoding="UTF-8" standalone="no"?>
<!DOCTYPE svg PUBLIC "-//W3C//DTD SVG 1.0//EN"
 "http://www.w3.org/TR/2001/REC-SVG-20010904/DTD/svg10.dtd" [
 <!ATTLIST svg xmlns:xlink CDATA #FIXED "http://www.w3.org/1999/xlink">
]>
<!-- Generated by Graphviz version 2.20.3 (Sat Dec &#160;6 19:09:51 UTC 2008)
     For user: (stb)  -->
<!-- Title: conceptual Pages: 1 -->
<svg width="221pt" height="450pt"
 viewBox="0.00 0.00 221.00 450.00" xmlns="http://www.w3.org/2000/svg" xmlns:xlink="http://www.w3.org/1999/xlink">
<g id="graph0" class="graph" transform="scale(1 1) rotate(0) translate(4 446)">
<title>conceptual</title>
<polygon style="fill:white;stroke:white;" points="-4,4 -4,-446 217,-446 217,4 -4,4"/>
<!-- users -->
<g id="node1" class="node"><title>users</title>
<polygon style="fill:none;stroke:black;" points="0,-222 0,-322 70,-322 70,-222 0,-222"/>
<text text-anchor="middle" x="35" y="-304.8" style="font-family:Times New Roman;font-size:14.00;">users</text>
<polyline style="fill:none;stroke:black;" points="0,-297 70,-297 "/>
<text text-anchor="start" x="8.1802" y="-280" style="font-family:Times New Roman;font-size:14.00;">username</text>
<text text-anchor="start" x="8.1802" y="-263.2" style="font-family:Times New Roman;font-size:14.00;">password</text>
<text text-anchor="start" x="8.1802" y="-246.4" style="font-family:Times New Roman;font-size:14.00;">name</text>
<text text-anchor="start" x="8.1802" y="-229.6" style="font-family:Times New Roman;font-size:14.00;">active</text>
</g>
<!-- groups -->
<g id="node2" class="node"><title>groups</title>
<polygon style="fill:none;stroke:black;" points="8,-102 8,-169 62,-169 62,-102 8,-102"/>
<text text-anchor="middle" x="35" y="-151.8" style="font-family:Times New Roman;font-size:14.00;">groups</text>
<polyline style="fill:none;stroke:black;" points="8,-144 62,-144 "/>
<text text-anchor="start" x="16.0021" y="-127.2" style="font-family:Times New Roman;font-size:14.00;">name</text>
<text text-anchor="start" x="16.0021" y="-110.4" style="font-family:Times New Roman;font-size:14.00;">admin</text>
</g>
<!-- users&#45;&gt;groups -->
<g id="edge10" class="edge"><title>users&#45;&gt;groups</title>
<path style="fill:none;stroke:black;" d="M35,-222C35,-208 35,-193 35,-179"/>
<polygon style="fill:black;stroke:black;" points="38.5001,-179 35,-169 31.5001,-179 38.5001,-179"/>
<text text-anchor="middle" x="56" y="-191.8" style="font-family:Times New Roman;font-size:14.00;">belongs</text>
</g>
<!-- categories -->
<g id="node3" class="node"><title>categories</title>
<polygon style="fill:none;stroke:black;" points="32,-0 32,-50 105,-50 105,-0 32,-0"/>
<text text-anchor="middle" x="68" y="-32.8" style="font-family:Times New Roman;font-size:14.00;">categories</text>
<polyline style="fill:none;stroke:black;" points="32,-25 105,-25 "/>
<text text-anchor="start" x="39.3401" y="-7.8" style="font-family:Times New Roman;font-size:14.00;">name</text>
</g>
<!-- groups&#45;&gt;categories -->
<g id="edge12" class="edge"><title>groups&#45;&gt;categories</title>
<path style="fill:none;stroke:black;" d="M35,-102C36,-91 38,-79 41,-68 42,-65 43,-62 45,-59"/>
<polygon style="fill:black;stroke:black;" points="48.1369,-60.5596 49,-50 41.7402,-57.7166 48.1369,-60.5596"/>
<text text-anchor="middle" x="62" y="-71.8" style="font-family:Times New Roman;font-size:14.00;">belongs</text>
</g>
<!-- categories&#45;&gt;categories -->
<g id="edge2" class="edge"><title>categories&#45;&gt;categories</title>
<path style="fill:none;stroke:black;" d="M105,-34C115,-33 122,-30 122,-25 122,-22 119,-20 115,-18"/>
<polygon style="fill:black;stroke:black;" points="115.492,-14.5292 105,-16 114.119,-21.3933 115.492,-14.5292"/>
<text text-anchor="middle" x="139" y="-20.8" style="font-family:Times New Roman;font-size:14.00;">parent</text>
</g>
<!-- pictures -->
<g id="node4" class="node"><title>pictures</title>
<polygon style="fill:none;stroke:black;" points="88,-222 88,-322 179,-322 179,-222 88,-222"/>
<text text-anchor="middle" x="133" y="-304.8" style="font-family:Times New Roman;font-size:14.00;">pictures</text>
<polyline style="fill:none;stroke:black;" points="88,-297 179,-297 "/>
<text text-anchor="start" x="95.6795" y="-280" style="font-family:Times New Roman;font-size:14.00;">photographer</text>
<text text-anchor="start" x="95.6795" y="-263.2" style="font-family:Times New Roman;font-size:14.00;">year</text>
<text text-anchor="start" x="95.6795" y="-246.4" style="font-family:Times New Roman;font-size:14.00;">description</text>
<text text-anchor="start" x="95.6795" y="-229.6" style="font-family:Times New Roman;font-size:14.00;">shown</text>
</g>
<!-- pictures&#45;&gt;categories -->
<g id="edge14" class="edge"><title>pictures&#45;&gt;categories</title>
<path style="fill:none;stroke:black;" d="M120,-222C115,-205 111,-187 107,-170 96,-124 97,-112 84,-68 83,-65 82,-62 81,-60"/>
<polygon style="fill:black;stroke:black;" points="84.2259,-58.5725 78,-50 77.5212,-60.584 84.2259,-58.5725"/>
<text text-anchor="middle" x="128" y="-131.8" style="font-family:Times New Roman;font-size:14.00;">belongs</text>
</g>
<!-- tags -->
<g id="node5" class="node"><title>tags</title>
<polygon style="fill:none;stroke:black;" points="159,-111 159,-161 213,-161 213,-111 159,-111"/>
<text text-anchor="middle" x="186" y="-143.8" style="font-family:Times New Roman;font-size:14.00;">tags</text>
<polyline style="fill:none;stroke:black;" points="159,-136 213,-136 "/>
<text text-anchor="start" x="166.84" y="-118.8" style="font-family:Times New Roman;font-size:14.00;">name</text>
</g>
<!-- pictures&#45;&gt;tags -->
<g id="edge4" class="edge"><title>pictures&#45;&gt;tags</title>
<path style="fill:none;stroke:black;" d="M153,-222C160,-205 167,-186 172,-171"/>
<polygon style="fill:black;stroke:black;" points="175.536,-171.585 176,-161 169.036,-168.985 175.536,-171.585"/>
<text text-anchor="middle" x="176" y="-191.8" style="font-family:Times New Roman;font-size:14.00;">tagid</text>
</g>
<!-- picturemodifies -->
<g id="node6" class="node"><title>picturemodifies</title>
<polygon style="fill:none;stroke:black;" points="30,-374 30,-441 146,-441 146,-374 30,-374"/>
<text text-anchor="middle" x="88" y="-423.8" style="font-family:Times New Roman;font-size:14.00;">picturemodifies</text>
<polyline style="fill:none;stroke:black;" points="30,-416 146,-416 "/>
<text text-anchor="start" x="38.2314" y="-399.2" style="font-family:Times New Roman;font-size:14.00;">action</text>
<text text-anchor="start" x="38.2314" y="-382.4" style="font-family:Times New Roman;font-size:14.00;">action_timestamp</text>
</g>
<!-- picturemodifies&#45;&gt;users -->
<g id="edge8" class="edge"><title>picturemodifies&#45;&gt;users</title>
<path style="fill:none;stroke:black;" d="M73,-374C71,-368 68,-362 66,-356 63,-348 60,-340 57,-331"/>
<polygon style="fill:black;stroke:black;" points="60.2598,-329.717 53,-322 53.8631,-332.56 60.2598,-329.717"/>
<text text-anchor="middle" x="83" y="-343.8" style="font-family:Times New Roman;font-size:14.00;">userid</text>
</g>
<!-- picturemodifies&#45;&gt;pictures -->
<g id="edge6" class="edge"><title>picturemodifies&#45;&gt;pictures</title>
<path style="fill:none;stroke:black;" d="M99,-374C103,-361 108,-346 113,-332"/>
<polygon style="fill:black;stroke:black;" points="116.479,-332.584 116,-322 109.774,-330.573 116.479,-332.584"/>
<text text-anchor="middle" x="134" y="-343.8" style="font-family:Times New Roman;font-size:14.00;">pictureid</text>
</g>
</g>
</svg>
