<?xml version="1.0" encoding="UTF-8" standalone="no"?>
<!DOCTYPE svg PUBLIC "-//W3C//DTD SVG 1.0//EN"
 "http://www.w3.org/TR/2001/REC-SVG-20010904/DTD/svg10.dtd" [
 <!ATTLIST svg xmlns:xlink CDATA #FIXED "http://www.w3.org/1999/xlink">
]>
<!-- Generated by Graphviz version 2.20.3 (Sat Dec &#160;6 19:09:51 UTC 2008)
     For user: (stb)  -->
<!-- Title: database Pages: 1 -->
<svg width="629pt" height="556pt"
 viewBox="0.00 0.00 629.00 556.00" xmlns="http://www.w3.org/2000/svg" xmlns:xlink="http://www.w3.org/1999/xlink">
<g id="graph0" class="graph" transform="scale(1 1) rotate(0) translate(4 552)">
<title>database</title>
<polygon style="fill:white;stroke:white;" points="-4,4 -4,-552 625,-552 625,4 -4,4"/>
<!-- users -->
<g id="node1" class="node"><title>users</title>
<polygon style="fill:none;stroke:black;" points="56,-0 56,-150 138,-150 138,-0 56,-0"/>
<text text-anchor="middle" x="97" y="-132.8" style="font-family:Times New Roman;font-size:14.00;">users</text>
<polyline style="fill:none;stroke:black;" points="56,-125 138,-125 "/>
<text text-anchor="start" x="63.9082" y="-107.8" style="font-family:Times New Roman;font-size:14.00;">&lt;&lt;key&gt;&gt; id</text>
<polyline style="fill:none;stroke:black;" points="56,-100 138,-100 "/>
<text text-anchor="start" x="64.1802" y="-82.8" style="font-family:Times New Roman;font-size:14.00;">username</text>
<polyline style="fill:none;stroke:black;" points="56,-75 138,-75 "/>
<text text-anchor="start" x="64.0645" y="-57.8" style="font-family:Times New Roman;font-size:14.00;">password</text>
<polyline style="fill:none;stroke:black;" points="56,-50 138,-50 "/>
<text text-anchor="start" x="63.8401" y="-32.8" style="font-family:Times New Roman;font-size:14.00;">name</text>
<polyline style="fill:none;stroke:black;" points="56,-25 138,-25 "/>
<text text-anchor="start" x="63.7875" y="-7.8" style="font-family:Times New Roman;font-size:14.00;">active</text>
</g>
<!-- groups -->
<g id="node2" class="node"><title>groups</title>
<polygon style="fill:none;stroke:black;" points="156,-25 156,-125 238,-125 238,-25 156,-25"/>
<text text-anchor="middle" x="197" y="-107.8" style="font-family:Times New Roman;font-size:14.00;">groups</text>
<polyline style="fill:none;stroke:black;" points="156,-100 238,-100 "/>
<text text-anchor="start" x="163.908" y="-82.8" style="font-family:Times New Roman;font-size:14.00;">&lt;&lt;key&gt;&gt; id</text>
<polyline style="fill:none;stroke:black;" points="156,-75 238,-75 "/>
<text text-anchor="start" x="163.84" y="-57.8" style="font-family:Times New Roman;font-size:14.00;">name</text>
<polyline style="fill:none;stroke:black;" points="156,-50 238,-50 "/>
<text text-anchor="start" x="164.002" y="-32.8" style="font-family:Times New Roman;font-size:14.00;">admin</text>
</g>
<!-- usergroups -->
<g id="node3" class="node"><title>usergroups</title>
<polygon style="fill:none;stroke:black;" points="45,-236 45,-311 192,-311 192,-236 45,-236"/>
<text text-anchor="middle" x="118" y="-293.8" style="font-family:Times New Roman;font-size:14.00;">usergroups</text>
<polyline style="fill:none;stroke:black;" points="45,-286 192,-286 "/>
<text text-anchor="start" x="52.3107" y="-268.8" style="font-family:Times New Roman;font-size:14.00;">&lt;&lt;fkey, key&gt;&gt; userid</text>
<polyline style="fill:none;stroke:black;" points="45,-261 192,-261 "/>
<text text-anchor="start" x="52.6403" y="-243.8" style="font-family:Times New Roman;font-size:14.00;">&lt;&lt;fkey, key&gt;&gt; groupid</text>
</g>
<!-- usergroups&#45;&gt;users -->
<g id="edge2" class="edge"><title>usergroups&#45;&gt;users</title>
<path style="fill:none;stroke:black;" d="M116,-261C112,-233 105,-170 100,-135"/>
<polygon style="fill:black;stroke:black;" points="103.478,-134.602 99,-125 96.5125,-135.299 103.478,-134.602"/>
</g>
<!-- usergroups&#45;&gt;groups -->
<g id="edge4" class="edge"><title>usergroups&#45;&gt;groups</title>
<path style="fill:none;stroke:black;" d="M124,-236C138,-208 169,-144 185,-109"/>
<polygon style="fill:black;stroke:black;" points="188.203,-110.441 190,-100 182.084,-107.042 188.203,-110.441"/>
</g>
<!-- categories -->
<g id="node4" class="node"><title>categories</title>
<polygon style="fill:none;stroke:black;" points="256,-25 256,-125 367,-125 367,-25 256,-25"/>
<text text-anchor="middle" x="311" y="-107.8" style="font-family:Times New Roman;font-size:14.00;">categories</text>
<polyline style="fill:none;stroke:black;" points="256,-100 367,-100 "/>
<text text-anchor="start" x="263.408" y="-82.8" style="font-family:Times New Roman;font-size:14.00;">&lt;&lt;key&gt;&gt; id</text>
<polyline style="fill:none;stroke:black;" points="256,-75 367,-75 "/>
<text text-anchor="start" x="263.533" y="-57.8" style="font-family:Times New Roman;font-size:14.00;">&lt;&lt;fkey&gt;&gt; parent</text>
<polyline style="fill:none;stroke:black;" points="256,-50 367,-50 "/>
<text text-anchor="start" x="263.34" y="-32.8" style="font-family:Times New Roman;font-size:14.00;">name</text>
</g>
<!-- categories&#45;&gt;categories -->
<g id="edge20" class="edge"><title>categories&#45;&gt;categories</title>
<path style="fill:none;stroke:black;" d="M319,-50C344,-15 384,-20 384,-75 384,-125 350,-134 325,-108"/>
<polygon style="fill:black;stroke:black;" points="327.8,-105.9 319,-100 322.2,-110.1 327.8,-105.9"/>
</g>
<!-- pictures -->
<g id="node5" class="node"><title>pictures</title>
<polygon style="fill:none;stroke:black;" points="389,-186 389,-361 521,-361 521,-186 389,-186"/>
<text text-anchor="middle" x="455" y="-343.8" style="font-family:Times New Roman;font-size:14.00;">pictures</text>
<polyline style="fill:none;stroke:black;" points="389,-336 521,-336 "/>
<text text-anchor="start" x="396.908" y="-318.8" style="font-family:Times New Roman;font-size:14.00;">&lt;&lt;key&gt;&gt; id</text>
<polyline style="fill:none;stroke:black;" points="389,-311 521,-311 "/>
<text text-anchor="start" x="397.18" y="-293.8" style="font-family:Times New Roman;font-size:14.00;">photographer</text>
<polyline style="fill:none;stroke:black;" points="389,-286 521,-286 "/>
<text text-anchor="start" x="396.955" y="-268.8" style="font-family:Times New Roman;font-size:14.00;">year</text>
<polyline style="fill:none;stroke:black;" points="389,-261 521,-261 "/>
<text text-anchor="start" x="396.897" y="-243.8" style="font-family:Times New Roman;font-size:14.00;">description</text>
<polyline style="fill:none;stroke:black;" points="389,-236 521,-236 "/>
<text text-anchor="start" x="397.23" y="-218.8" style="font-family:Times New Roman;font-size:14.00;">&lt;&lt;fkey&gt;&gt;categoryid</text>
<polyline style="fill:none;stroke:black;" points="389,-211 521,-211 "/>
<text text-anchor="start" x="397.224" y="-193.8" style="font-family:Times New Roman;font-size:14.00;">shown</text>
</g>
<!-- pictures&#45;&gt;categories -->
<g id="edge10" class="edge"><title>pictures&#45;&gt;categories</title>
<path style="fill:none;stroke:black;" d="M441,-211C416,-187 363,-136 333,-107"/>
<polygon style="fill:black;stroke:black;" points="334.831,-103.951 325,-100 330.221,-109.219 334.831,-103.951"/>
</g>
<!-- categorygroups -->
<g id="node6" class="node"><title>categorygroups</title>
<polygon style="fill:none;stroke:black;" points="209,-236 209,-311 371,-311 371,-236 209,-236"/>
<text text-anchor="middle" x="290" y="-293.8" style="font-family:Times New Roman;font-size:14.00;">categorygroups</text>
<polyline style="fill:none;stroke:black;" points="209,-286 371,-286 "/>
<text text-anchor="start" x="216.873" y="-268.8" style="font-family:Times New Roman;font-size:14.00;">&lt;&lt;fkey, key&gt;&gt; categoryid</text>
<polyline style="fill:none;stroke:black;" points="209,-261 371,-261 "/>
<text text-anchor="start" x="217.14" y="-243.8" style="font-family:Times New Roman;font-size:14.00;">&lt;&lt;fkey, key&gt;&gt; groupid</text>
</g>
<!-- categorygroups&#45;&gt;groups -->
<g id="edge8" class="edge"><title>categorygroups&#45;&gt;groups</title>
<path style="fill:none;stroke:black;" d="M282,-236C266,-208 229,-143 210,-109"/>
<polygon style="fill:black;stroke:black;" points="212.916,-107.042 205,-100 206.797,-110.441 212.916,-107.042"/>
</g>
<!-- categorygroups&#45;&gt;categories -->
<g id="edge6" class="edge"><title>categorygroups&#45;&gt;categories</title>
<path style="fill:none;stroke:black;" d="M291,-261C295,-229 304,-150 308,-110"/>
<polygon style="fill:black;stroke:black;" points="311.488,-110.299 309,-100 304.522,-109.602 311.488,-110.299"/>
</g>
<!-- tags -->
<g id="node7" class="node"><title>tags</title>
<polygon style="fill:none;stroke:black;" points="539,-236 539,-311 621,-311 621,-236 539,-236"/>
<text text-anchor="middle" x="580" y="-293.8" style="font-family:Times New Roman;font-size:14.00;">tags</text>
<polyline style="fill:none;stroke:black;" points="539,-286 621,-286 "/>
<text text-anchor="start" x="546.908" y="-268.8" style="font-family:Times New Roman;font-size:14.00;">&lt;&lt;key&gt;&gt; id</text>
<polyline style="fill:none;stroke:black;" points="539,-261 621,-261 "/>
<text text-anchor="start" x="546.84" y="-243.8" style="font-family:Times New Roman;font-size:14.00;">name</text>
</g>
<!-- picturetags -->
<g id="node8" class="node"><title>picturetags</title>
<polygon style="fill:none;stroke:black;" points="441,-435 441,-510 594,-510 594,-435 441,-435"/>
<text text-anchor="middle" x="517" y="-492.8" style="font-family:Times New Roman;font-size:14.00;">picturetags</text>
<polyline style="fill:none;stroke:black;" points="441,-485 594,-485 "/>
<text text-anchor="start" x="448.535" y="-467.8" style="font-family:Times New Roman;font-size:14.00;">&lt;&lt;fkey, key&gt;&gt; pictureid</text>
<polyline style="fill:none;stroke:black;" points="441,-460 594,-460 "/>
<text text-anchor="start" x="448.418" y="-442.8" style="font-family:Times New Roman;font-size:14.00;">&lt;&lt;fkey, key&gt;&gt; tagid</text>
</g>
<!-- picturetags&#45;&gt;pictures -->
<g id="edge12" class="edge"><title>picturetags&#45;&gt;pictures</title>
<path style="fill:none;stroke:black;" d="M512,-460C501,-434 477,-377 464,-345"/>
<polygon style="fill:black;stroke:black;" points="467.26,-343.717 460,-336 460.863,-346.56 467.26,-343.717"/>
</g>
<!-- picturetags&#45;&gt;tags -->
<g id="edge14" class="edge"><title>picturetags&#45;&gt;tags</title>
<path style="fill:none;stroke:black;" d="M522,-435C532,-405 559,-333 572,-296"/>
<polygon style="fill:black;stroke:black;" points="575.536,-296.585 576,-286 569.036,-293.985 575.536,-296.585"/>
</g>
<!-- picturemodifies -->
<g id="node9" class="node"><title>picturemodifies</title>
<polygon style="fill:none;stroke:black;" points="157,-398 157,-548 283,-548 283,-398 157,-398"/>
<text text-anchor="middle" x="220" y="-530.8" style="font-family:Times New Roman;font-size:14.00;">picturemodifies</text>
<polyline style="fill:none;stroke:black;" points="157,-523 283,-523 "/>
<text text-anchor="start" x="164.908" y="-505.8" style="font-family:Times New Roman;font-size:14.00;">&lt;&lt;key&gt;&gt; id</text>
<polyline style="fill:none;stroke:black;" points="157,-498 283,-498 "/>
<text text-anchor="start" x="165.142" y="-480.8" style="font-family:Times New Roman;font-size:14.00;">&lt;&lt;fkey&gt;&gt; pictureid</text>
<polyline style="fill:none;stroke:black;" points="157,-473 283,-473 "/>
<text text-anchor="start" x="164.918" y="-455.8" style="font-family:Times New Roman;font-size:14.00;">&lt;&lt;fkey&gt;&gt; userid</text>
<polyline style="fill:none;stroke:black;" points="157,-448 283,-448 "/>
<text text-anchor="start" x="164.895" y="-430.8" style="font-family:Times New Roman;font-size:14.00;">action</text>
<polyline style="fill:none;stroke:black;" points="157,-423 283,-423 "/>
<text text-anchor="start" x="165.231" y="-405.8" style="font-family:Times New Roman;font-size:14.00;">action_timestamp</text>
</g>
<!-- picturemodifies&#45;&gt;users -->
<g id="edge18" class="edge"><title>picturemodifies&#45;&gt;users</title>
<path style="fill:none;stroke:black;" d="M210,-448C199,-434 179,-411 157,-398 108,-369 69,-406 36,-362 -10,-299 10,-259 36,-186 44,-165 60,-145 74,-132"/>
<polygon style="fill:black;stroke:black;" points="76.4038,-134.546 81,-125 71.454,-129.596 76.4038,-134.546"/>
</g>
<!-- picturemodifies&#45;&gt;pictures -->
<g id="edge16" class="edge"><title>picturemodifies&#45;&gt;pictures</title>
<path style="fill:none;stroke:black;" d="M226,-473C235,-454 255,-418 283,-398 323,-368 343,-381 389,-361 401,-355 414,-348 425,-341"/>
<polygon style="fill:black;stroke:black;" points="426.958,-343.916 434,-336 423.559,-337.797 426.958,-343.916"/>
</g>
</g>
</svg>
