<?xml version="1.0" encoding="UTF-8" standalone="no"?>
<!-- Generated by Graphviz version 2.20.3 (Sat Dec &#160;6 19:09:51 UTC 2008)
     For user: (stb)  -->
<!-- Title: database Pages: 1 -->
<svg
   xmlns:dc="http://purl.org/dc/elements/1.1/"
   xmlns:cc="http://creativecommons.org/ns#"
   xmlns:rdf="http://www.w3.org/1999/02/22-rdf-syntax-ns#"
   xmlns:svg="http://www.w3.org/2000/svg"
   xmlns="http://www.w3.org/2000/svg"
   xmlns:sodipodi="http://sodipodi.sourceforge.net/DTD/sodipodi-0.dtd"
   xmlns:inkscape="http://www.inkscape.org/namespaces/inkscape"
   width="612pt"
   height="450pt"
   viewBox="0.00 0.00 612.00 450.00"
   id="svg2"
   sodipodi:version="0.32"
   inkscape:version="0.46"
   sodipodi:docname="database.svg"
   inkscape:output_extension="org.inkscape.output.svg.inkscape"
   inkscape:export-filename="/var/www/galleria/docs/design/database.png"
   inkscape:export-xdpi="90"
   inkscape:export-ydpi="90">
  <metadata
     id="metadata223">
    <rdf:RDF>
      <cc:Work
         rdf:about="">
        <dc:format>image/svg+xml</dc:format>
        <dc:type
           rdf:resource="http://purl.org/dc/dcmitype/StillImage" />
      </cc:Work>
    </rdf:RDF>
  </metadata>
  <defs
     id="defs221">
    <inkscape:perspective
       sodipodi:type="inkscape:persp3d"
       inkscape:vp_x="0 : 281.25 : 1"
       inkscape:vp_y="0 : 1000 : 0"
       inkscape:vp_z="765 : 281.25 : 1"
       inkscape:persp3d-origin="382.5 : 187.5 : 1"
       id="perspective225" />
    <title
       id="title5">database</title>
    <title
       id="title214">picturemodifies-&gt;pictures</title>
    <title
       id="title181">picturetags-&gt;tags</title>
    <title
       id="title174">picturetags-&gt;pictures</title>
    <title
       id="title57">usergroups-&gt;users</title>
    <title
       id="title207">picturemodifies-&gt;users</title>
    <title
       id="title64">usergroups-&gt;groups</title>
    <title
       id="title134">categorygroups-&gt;groups</title>
    <title
       id="title86">categories-&gt;categories</title>
    <title
       id="title141">categorygroups-&gt;categories</title>
    <title
       id="title114">pictures-&gt;categories</title>
  </defs>
  <sodipodi:namedview
     inkscape:window-height="788"
     inkscape:window-width="1280"
     inkscape:pageshadow="2"
     inkscape:pageopacity="0.0"
     guidetolerance="10.0"
     gridtolerance="10.0"
     objecttolerance="10.0"
     borderopacity="1.0"
     bordercolor="#666666"
     pagecolor="#ffffff"
     id="base"
     showgrid="false"
     inkscape:zoom="1.0038143"
     inkscape:cx="488.50325"
     inkscape:cy="289.07914"
     inkscape:window-x="0"
     inkscape:window-y="12"
     inkscape:current-layer="svg2" />
  <polygon
     id="polygon7"
     points="-4,4 -4,-446 608,-446 608,4 -4,4 "
     style="fill:#ffffff;stroke:#ffffff"
     transform="translate(4,446)" />
  <g
     class="node"
     id="node1"
     transform="translate(4,446)">
    <title
       id="title10">users</title>
    <polygon
       id="polygon12"
       points="492,0 492,-117 574,-117 574,0 492,0 "
       style="fill:none;stroke:#000000" />
    <text
       id="text14"
       style="font-size:14px;text-anchor:middle;font-family:Times New Roman"
       y="-99.800003"
       x="533">users</text>
    <polyline
       id="polyline16"
       points="492,-92 574,-92 "
       style="fill:none;stroke:#000000" />
    <text
       id="text18"
       style="font-size:14px;text-anchor:start;font-family:Times New Roman"
       y="-75.400002"
       x="499.90799">&lt;&lt;key&gt;&gt; id</text>
    <text
       id="text20"
       style="font-size:14px;text-anchor:start;font-family:Times New Roman"
       y="-58.599998"
       x="499.90799">username</text>
    <text
       id="text22"
       style="font-size:14px;text-anchor:start;font-family:Times New Roman"
       y="-41.799999"
       x="499.90799">password</text>
    <text
       id="text24"
       style="font-size:14px;text-anchor:start;font-family:Times New Roman"
       y="-25"
       x="499.90799">name</text>
    <text
       id="text26"
       style="font-size:14px;text-anchor:start;font-family:Times New Roman"
       y="-8.1999998"
       x="499.90799">active</text>
  </g>
  <g
     class="node"
     id="node2"
     transform="translate(4,446)">
    <title
       id="title29">groups</title>
    <polygon
       id="polygon31"
       points="392,-17 392,-100 474,-100 474,-17 392,-17 "
       style="fill:none;stroke:#000000" />
    <text
       id="text33"
       style="font-size:14px;text-anchor:middle;font-family:Times New Roman"
       y="-82.800003"
       x="433">groups</text>
    <polyline
       id="polyline35"
       points="392,-75 474,-75 "
       style="fill:none;stroke:#000000" />
    <text
       id="text37"
       style="font-size:14px;text-anchor:start;font-family:Times New Roman"
       y="-58.599998"
       x="399.90799">&lt;&lt;key&gt;&gt; id</text>
    <text
       id="text39"
       style="font-size:14px;text-anchor:start;font-family:Times New Roman"
       y="-41.799999"
       x="399.90799">name</text>
    <text
       id="text41"
       style="font-size:14px;text-anchor:start;font-family:Times New Roman"
       y="-25"
       x="399.90799">admin</text>
  </g>
  <g
     class="node"
     id="node3"
     transform="translate(4,446)">
    <title
       id="title44">usergroups</title>
    <polygon
       id="polygon46"
       points="430,-187 430,-254 577,-254 577,-187 430,-187 "
       style="fill:none;stroke:#000000" />
    <text
       id="text48"
       style="font-size:14px;text-anchor:middle;font-family:Times New Roman"
       y="-236.8"
       x="503">usergroups</text>
    <polyline
       id="polyline50"
       points="430,-229 577,-229 "
       style="fill:none;stroke:#000000" />
    <text
       id="text52"
       style="font-size:14px;text-anchor:start;font-family:Times New Roman"
       y="-212.2"
       x="437.64001">&lt;&lt;fkey, key&gt;&gt; userid</text>
    <text
       id="text54"
       style="font-size:14px;text-anchor:start;font-family:Times New Roman"
       y="-195.39999"
       x="437.64001">&lt;&lt;fkey, key&gt;&gt; groupid</text>
  </g>
  <path
     sodipodi:nodetypes="cc"
     style="fill:none;stroke:#000000"
     d="M 581.18785,229.1326 C 603.78453,328.08288 493.1326,270.35359 486.42541,355.27072"
     id="path59" />
  <polygon
     style="fill:#000000;stroke:#000000"
     points="526.471,-102.492 525,-92 519.607,-101.119 526.471,-102.492 "
     id="polygon61"
     transform="matrix(0.6209693,-0.7838349,0.7838349,0.6209693,241.27929,827.57004)" />
  <path
     sodipodi:nodetypes="cc"
     style="fill:none;stroke:#000000"
     d="M 432.57459,246.60221 C 420.57459,276.60221 485.28729,302.25967 482.30387,372.27072"
     id="path66" />
  <polygon
     style="fill:#000000;stroke:#000000"
     points="451.964,-82.9849 445,-75 445.464,-85.5847 451.964,-82.9849 "
     id="polygon68"
     transform="translate(33.303867,455.01657)" />
  <g
     class="node"
     id="node4"
     transform="translate(4,446)">
    <title
       id="title71">categories</title>
    <polygon
       id="polygon73"
       points="246,-17 246,-100 357,-100 357,-17 246,-17 "
       style="fill:none;stroke:#000000" />
    <text
       id="text75"
       style="font-size:14px;text-anchor:middle;font-family:Times New Roman"
       y="-82.800003"
       x="301">categories</text>
    <polyline
       id="polyline77"
       points="246,-75 357,-75 "
       style="fill:none;stroke:#000000" />
    <text
       id="text79"
       style="font-size:14px;text-anchor:start;font-family:Times New Roman"
       y="-58.599998"
       x="253.533">&lt;&lt;key&gt;&gt; id</text>
    <text
       id="text81"
       style="font-size:14px;text-anchor:start;font-family:Times New Roman"
       y="-41.799999"
       x="253.533">&lt;&lt;fkey&gt;&gt; parent</text>
    <text
       id="text83"
       style="font-size:14px;text-anchor:start;font-family:Times New Roman"
       y="-25"
       x="253.533">name</text>
  </g>
  <path
     style="fill:none;stroke:#000000"
     d="M 371.70718,383.54143 C 387.40205,383.76644 383.83859,401.0317 361.1989,400.25966"
     id="path88"
     sodipodi:nodetypes="cc" />
  <polygon
     style="fill:#000000;stroke:#000000"
     points="351,-13.5001 341,-17 351,-20.5001 351,-13.5001 "
     id="polygon90"
     transform="translate(20.906077,399.79006)" />
  <g
     class="node"
     id="node5"
     transform="translate(73.335531,309.71982)">
    <title
       id="title93">pictures</title>
    <polygon
       id="polygon95"
       points="100,-154 100,-288 232,-288 232,-154 100,-154 "
       style="fill:none;stroke:#000000" />
    <text
       id="text97"
       style="font-size:14px;text-anchor:middle;font-family:Times New Roman"
       y="-270.79999"
       x="166">pictures</text>
    <polyline
       id="polyline99"
       points="100,-263 232,-263 "
       style="fill:none;stroke:#000000" />
    <text
       id="text101"
       style="font-size:14px;text-anchor:start;font-family:Times New Roman"
       y="-245.8"
       x="108.23">&lt;&lt;key&gt;&gt; id</text>
    <text
       id="text103"
       style="font-size:14px;text-anchor:start;font-family:Times New Roman"
       y="-229"
       x="108.23">photographer</text>
    <text
       id="text105"
       style="font-size:14px;text-anchor:start;font-family:Times New Roman"
       y="-212.2"
       x="108.23">year</text>
    <text
       id="text107"
       style="font-size:14px;text-anchor:start;font-family:Times New Roman"
       y="-195.39999"
       x="108.23">description</text>
    <text
       id="text109"
       style="font-size:14px;text-anchor:start;font-family:Times New Roman"
       y="-178.60001"
       x="108.23">&lt;&lt;fkey&gt;&gt;categoryid</text>
    <text
       id="text111"
       style="font-size:14px;text-anchor:start;font-family:Times New Roman"
       y="-161.8"
       x="108.23">shown</text>
  </g>
  <path
     sodipodi:nodetypes="cc"
     style="fill:none;stroke:#000000"
     d="M 173.48904,127.21291 C 148.65623,171.93387 217.06079,222.66595 242.62431,375.96133"
     id="path116" />
  <polygon
     style="fill:#000000;stroke:#000000"
     points="275.8,-85.1 279,-75 270.2,-80.9 275.8,-85.1 "
     id="polygon118"
     transform="translate(-30.375691,459.52486)" />
  <g
     class="node"
     id="node6"
     transform="translate(4,446)">
    <title
       id="title121">categorygroups</title>
    <polygon
       id="polygon123"
       points="250,-187 250,-254 412,-254 412,-187 250,-187 "
       style="fill:none;stroke:#000000" />
    <text
       id="text125"
       style="font-size:14px;text-anchor:middle;font-family:Times New Roman"
       y="-236.8"
       x="331">categorygroups</text>
    <polyline
       id="polyline127"
       points="250,-229 412,-229 "
       style="fill:none;stroke:#000000" />
    <text
       id="text129"
       style="font-size:14px;text-anchor:start;font-family:Times New Roman"
       y="-212.2"
       x="257.87299">&lt;&lt;fkey, key&gt;&gt; categoryid</text>
    <text
       id="text131"
       style="font-size:14px;text-anchor:start;font-family:Times New Roman"
       y="-195.39999"
       x="257.87299">&lt;&lt;fkey, key&gt;&gt; groupid</text>
  </g>
  <path
     sodipodi:nodetypes="cc"
     style="fill:none;stroke:#000000"
     d="M 415.98895,247.72928 C 432.98895,277.72928 371.07735,345.65193 389.07735,376.65193"
     id="path136" />
  <polygon
     style="fill:#000000;stroke:#000000"
     points="414.203,-85.4414 416,-75 408.084,-82.0418 414.203,-85.4414 "
     id="polygon138"
     transform="translate(-20.79558,458.96133)" />
  <path
     style="fill:none;stroke:#000000"
     d="M 252.92265,224.62431 C 228.07182,348.17127 384.49724,292.24309 367.22652,369.45304"
     id="path143"
     sodipodi:nodetypes="cc" />
  <polygon
     style="fill:#000000;stroke:#000000"
     points="311.393,-84.1194 306,-75 304.529,-85.4922 311.393,-84.1194 "
     id="polygon145"
     transform="matrix(0.9151432,0.403129,-0.403129,0.9151432,50.755442,322.36853)" />
  <g
     class="node"
     id="node7"
     transform="translate(117.9653,606.18899)">
    <title
       id="title148">tags</title>
    <polygon
       id="polygon150"
       points="0,-187 0,-254 82,-254 82,-187 0,-187 "
       style="fill:none;stroke:#000000" />
    <text
       id="text152"
       style="font-size:14px;text-anchor:middle;font-family:Times New Roman"
       y="-236.8"
       x="41">tags</text>
    <polyline
       id="polyline154"
       points="0,-229 82,-229 "
       style="fill:none;stroke:#000000" />
    <text
       id="text156"
       style="font-size:14px;text-anchor:start;font-family:Times New Roman"
       y="-212.2"
       x="7.9081998">&lt;&lt;key&gt;&gt; id</text>
    <text
       id="text158"
       style="font-size:14px;text-anchor:start;font-family:Times New Roman"
       y="-195.39999"
       x="7.9081998">name</text>
  </g>
  <g
     class="node"
     id="node8"
     transform="translate(1.5194434e-2,621.33123)">
    <title
       id="title161">picturetags</title>
    <polygon
       id="polygon163"
       points="27,-349 27,-416 180,-416 180,-349 27,-349 "
       style="fill:none;stroke:#000000" />
    <text
       id="text165"
       style="font-size:14px;text-anchor:middle;font-family:Times New Roman"
       y="-398.79999"
       x="103">picturetags</text>
    <polyline
       id="polyline167"
       points="27,-391 180,-391 "
       style="fill:none;stroke:#000000" />
    <text
       id="text169"
       style="font-size:14px;text-anchor:start;font-family:Times New Roman"
       y="-374.20001"
       x="34.535099">&lt;&lt;fkey, key&gt;&gt; pictureid</text>
    <text
       id="text171"
       style="font-size:14px;text-anchor:start;font-family:Times New Roman"
       y="-357.39999"
       x="34.535099">&lt;&lt;fkey, key&gt;&gt; tagid</text>
  </g>
  <path
     style="fill:none;stroke:#000000"
     d="M 171.28869,57.705812 C 167.79426,58.34406 14.748731,141.07453 19.113372,230.88115"
     id="path176"
     sodipodi:nodetypes="cc" />
  <polygon
     transform="matrix(0.6129643,-0.9653491,0.7777314,0.760834,142.75806,578.06363)"
     style="fill:#000000;stroke:#000000"
     points="146.479,-273.584 146,-263 139.774,-271.573 146.479,-273.584 "
     id="polygon178" />
  <path
     style="fill:none;stroke:#000000"
     d="M 26.772105,260.26355 C 5.8093225,316.17235 100.61309,346.37269 110.46392,384.69865"
     id="path183"
     sodipodi:nodetypes="cc" />
  <polygon
     style="fill:#000000;stroke:#000000"
     points="55.2259,-237.573 49,-229 48.5212,-239.584 55.2259,-237.573 "
     id="polygon185"
     transform="matrix(0.295379,-0.9553801,0.9553801,0.295379,321.83566,504.78747)"
     inkscape:transform-center-x="1.5794953"
     inkscape:transform-center-y="-7.7990393" />
  <g
     class="node"
     id="node9"
     transform="translate(2.4060797,488.23889)">
    <title
       id="title188">picturemodifies</title>
    <polygon
       id="polygon190"
       points="369,-324 369,-441 495,-441 495,-324 369,-324 "
       style="fill:none;stroke:#000000" />
    <text
       id="text192"
       style="font-size:14px;text-anchor:middle;font-family:Times New Roman"
       y="-423.79999"
       x="432">picturemodifies</text>
    <polyline
       id="polyline194"
       points="369,-416 495,-416 "
       style="fill:none;stroke:#000000" />
    <text
       id="text196"
       style="font-size:14px;text-anchor:start;font-family:Times New Roman"
       y="-399.39999"
       x="377.142">&lt;&lt;key&gt;&gt; id</text>
    <text
       id="text198"
       style="font-size:14px;text-anchor:start;font-family:Times New Roman"
       y="-382.60001"
       x="377.142">&lt;&lt;fkey&gt;&gt; pictureid</text>
    <text
       id="text200"
       style="font-size:14px;text-anchor:start;font-family:Times New Roman"
       y="-365.79999"
       x="377.142">&lt;&lt;fkey&gt;&gt; userid</text>
    <text
       id="text202"
       style="font-size:14px;text-anchor:start;font-family:Times New Roman"
       y="-349"
       x="377.142">action</text>
    <text
       id="text204"
       style="font-size:14px;text-anchor:start;font-family:Times New Roman"
       y="-332.20001"
       x="377.142">action_timestamp</text>
  </g>
  <path
     sodipodi:nodetypes="cc"
     style="fill:none;stroke:#000000"
     d="M 498.43646,121.1864 C 622.01531,172.43856 599.80992,244.78031 586.90608,356.27072"
     id="path209" />
  <polygon
     style="fill:#000000;stroke:#000000"
     points="568.916,-99.0418 561,-92 562.797,-102.441 568.916,-99.0418 "
     id="polygon211"
     transform="matrix(0.8772849,0.4799701,-0.4799701,0.8772849,41.881441,174.74088)" />
  <path
     sodipodi:nodetypes="cc"
     style="fill:none;stroke:#000000"
     d="M 369.48205,99.361818 C 367.86163,99.241095 336.22751,44.623164 315.76647,54.909029"
     id="path216" />
  <polygon
     transform="matrix(0.8914966,0.4530274,-0.4530274,0.8914966,4.2914493,200.56829)"
     style="fill:#000000;stroke:#000000"
     points="214.219,-268.221 205,-263 208.951,-272.831 214.219,-268.221 "
     id="polygon218" />
</svg>
