<?xml version="1.0" encoding="UTF-8" standalone="no"?>
<!DOCTYPE svg PUBLIC "-//W3C//DTD SVG 1.0//EN"
 "http://www.w3.org/TR/2001/REC-SVG-20010904/DTD/svg10.dtd" [
 <!ATTLIST svg xmlns:xlink CDATA #FIXED "http://www.w3.org/1999/xlink">
]>
<!-- Generated by Graphviz version 2.20.3 (Sat Dec &#160;6 19:09:51 UTC 2008)
     For user: (stb)  -->
<!-- Title: Overview Pages: 1 -->
<svg width="696pt" height="192pt"
 viewBox="0.00 0.00 696.00 192.00" xmlns="http://www.w3.org/2000/svg" xmlns:xlink="http://www.w3.org/1999/xlink">
<g id="graph0" class="graph" transform="scale(1 1) rotate(0) translate(4 188)">
<title>Overview</title>
<polygon style="fill:white;stroke:white;" points="-4,4 -4,-188 692,-188 692,4 -4,4"/>
<!-- galleria -->
<g id="node1" class="node"><title>galleria</title>
<ellipse style="fill:none;stroke:black;" cx="303" cy="-22" rx="42.1338" ry="18"/>
<ellipse style="fill:none;stroke:black;" cx="303" cy="-22" rx="46.1338" ry="22"/>
<text text-anchor="middle" x="303" y="-17.8" style="font-family:Times New Roman;font-size:14.00;">Galleria</text>
</g>
<!-- visitor -->
<g id="node3" class="node"><title>visitor</title>
<ellipse style="fill:none;stroke:black;" cx="553" cy="-166" rx="47.0011" ry="18"/>
<text text-anchor="middle" x="553" y="-161.8" style="font-family:Times New Roman;font-size:14.00;">Vierailija</text>
</g>
<!-- visitor&#45;&gt;galleria -->
<g id="edge7" class="edge"><title>visitor&#45;&gt;galleria</title>
<path style="fill:none;stroke:black;" d="M544,-148C532,-124 507,-83 474,-62 455,-49 400,-38 357,-31"/>
<polygon style="fill:black;stroke:black;" points="357.492,-27.5292 347,-29 356.119,-34.3933 357.492,-27.5292"/>
<text text-anchor="start" x="533.625" y="-117" style="font-family:Times New Roman;font-size:14.00;">Kuvien selaaminen</text>
<text text-anchor="start" x="533.625" y="-100.2" style="font-family:Times New Roman;font-size:14.00;">Kuvien hakeminen</text>
<text text-anchor="start" x="533.625" y="-83.4" style="font-family:Times New Roman;font-size:14.00;">Kuvien tietojen katsominen</text>
<text text-anchor="start" x="533.625" y="-66.6" style="font-family:Times New Roman;font-size:14.00;">Apusivun lukeminen</text>
</g>
<!-- ruser -->
<g id="node4" class="node"><title>ruser</title>
<ellipse style="fill:none;stroke:black;" cx="303" cy="-166" rx="107.943" ry="18"/>
<text text-anchor="middle" x="303" y="-161.8" style="font-family:Times New Roman;font-size:14.00;">Rekisteröitynyt käyttäjä</text>
</g>
<!-- ruser&#45;&gt;galleria -->
<g id="edge9" class="edge"><title>ruser&#45;&gt;galleria</title>
<path style="fill:none;stroke:black;" d="M303,-148C303,-124 303,-83 303,-54"/>
<polygon style="fill:black;stroke:black;" points="306.5,-54 303,-44 299.5,-54 306.5,-54"/>
<text text-anchor="start" x="303.403" y="-100.2" style="font-family:Times New Roman;font-size:14.00;">Rajattujen kuvien katsominen</text>
<text text-anchor="start" x="303.403" y="-83.4" style="font-family:Times New Roman;font-size:14.00;">Profiili</text>
</g>
<!-- ruser&#45;&gt;visitor -->
<g id="edge5" class="edge"><title>ruser&#45;&gt;visitor</title>
<path style="fill:none;stroke:black;" d="M411,-166C440,-166 470,-166 495,-166"/>
<polygon style="fill:black;stroke:black;" points="495,-169.5 505,-166 495,-162.5 495,-169.5"/>
<text text-anchor="middle" x="458" y="-169.8" style="font-family:Times New Roman;font-size:14.00;">&lt;&lt;Extends&gt;&gt;</text>
</g>
<!-- admin -->
<g id="node5" class="node"><title>admin</title>
<ellipse style="fill:none;stroke:black;" cx="50" cy="-166" rx="50.232" ry="18"/>
<text text-anchor="middle" x="50" y="-161.8" style="font-family:Times New Roman;font-size:14.00;">Ylläpitäjä</text>
</g>
<!-- admin&#45;&gt;galleria -->
<g id="edge11" class="edge"><title>admin&#45;&gt;galleria</title>
<path style="fill:none;stroke:black;" d="M66,-149C88,-126 131,-85 174,-62 198,-49 227,-40 250,-33"/>
<polygon style="fill:black;stroke:black;" points="250.881,-36.3933 260,-31 249.508,-29.5292 250.881,-36.3933"/>
<text text-anchor="start" x="174.213" y="-108.6" style="font-family:Times New Roman;font-size:14.00;">Käyttäjähallinta</text>
<text text-anchor="start" x="174.213" y="-91.8" style="font-family:Times New Roman;font-size:14.00;">Kuvien hallinta</text>
<text text-anchor="start" x="174.213" y="-75" style="font-family:Times New Roman;font-size:14.00;">Kategorioiden hallinta</text>
</g>
<!-- admin&#45;&gt;ruser -->
<g id="edge3" class="edge"><title>admin&#45;&gt;ruser</title>
<path style="fill:none;stroke:black;" d="M101,-166C125,-166 155,-166 185,-166"/>
<polygon style="fill:black;stroke:black;" points="185,-169.5 195,-166 185,-162.5 185,-169.5"/>
<text text-anchor="middle" x="147" y="-169.8" style="font-family:Times New Roman;font-size:14.00;">&lt;&lt;Extends&gt;&gt;</text>
</g>
</g>
</svg>
