<?xml version="1.0" encoding="UTF-8" standalone="no"?>
<!DOCTYPE svg PUBLIC "-//W3C//DTD SVG 1.0//EN"
 "http://www.w3.org/TR/2001/REC-SVG-20010904/DTD/svg10.dtd" [
 <!ATTLIST svg xmlns:xlink CDATA #FIXED "http://www.w3.org/1999/xlink">
]>
<!-- Generated by Graphviz version 2.20.3 (Sat Dec &#160;6 19:09:51 UTC 2008)
     For user: (stb)  -->
<!-- Title: user_interface Pages: 1 -->
<svg width="548pt" height="316pt"
 viewBox="0.00 0.00 548.00 316.00" xmlns="http://www.w3.org/2000/svg" xmlns:xlink="http://www.w3.org/1999/xlink">
<g id="graph0" class="graph" transform="scale(1 1) rotate(0) translate(4 312)">
<title>user_interface</title>
<polygon style="fill:white;stroke:white;" points="-4,4 -4,-312 544,-312 544,4 -4,4"/>
<!-- index -->
<g id="node1" class="node"><title>index</title>
<polygon style="fill:none;stroke:black;" points="164,-258 164,-308 240,-308 240,-258 164,-258"/>
<text text-anchor="middle" x="202" y="-290.8" style="font-family:Times New Roman;font-size:14.00;">Front page</text>
<polyline style="fill:none;stroke:black;" points="164,-283 240,-283 "/>
<text text-anchor="start" x="172.111" y="-265.8" style="font-family:Times New Roman;font-size:14.00;">Public</text>
</g>
<!-- browse -->
<g id="node2" class="node"><title>browse</title>
<polygon style="fill:none;stroke:black;" points="0,-172 0,-222 59,-222 59,-172 0,-172"/>
<text text-anchor="middle" x="29" y="-204.8" style="font-family:Times New Roman;font-size:14.00;">Browse</text>
<polyline style="fill:none;stroke:black;" points="0,-197 59,-197 "/>
<text text-anchor="start" x="7.6108" y="-179.8" style="font-family:Times New Roman;font-size:14.00;">Public</text>
</g>
<!-- index&#45;&gt;browse -->
<g id="edge2" class="edge"><title>index&#45;&gt;browse</title>
<path style="fill:none;stroke:black;" d="M164,-267C138,-257 104,-241 68,-222"/>
<polygon style="fill:black;stroke:black;" points="69.4414,-218.797 59,-217 66.0418,-224.916 69.4414,-218.797"/>
</g>
<!-- search -->
<g id="node3" class="node"><title>search</title>
<polygon style="fill:none;stroke:black;" points="76,-172 76,-222 130,-222 130,-172 76,-172"/>
<text text-anchor="middle" x="103" y="-204.8" style="font-family:Times New Roman;font-size:14.00;">Search</text>
<polyline style="fill:none;stroke:black;" points="76,-197 130,-197 "/>
<text text-anchor="start" x="84.1108" y="-179.8" style="font-family:Times New Roman;font-size:14.00;">Public</text>
</g>
<!-- index&#45;&gt;search -->
<g id="edge4" class="edge"><title>index&#45;&gt;search</title>
<path style="fill:none;stroke:black;" d="M173,-258C162,-248 149,-237 138,-227"/>
<polygon style="fill:black;stroke:black;" points="140.1,-224.2 130,-221 135.9,-229.8 140.1,-224.2"/>
</g>
<!-- help -->
<g id="node4" class="node"><title>help</title>
<polygon style="fill:none;stroke:black;" points="148,-172 148,-222 202,-222 202,-172 148,-172"/>
<text text-anchor="middle" x="175" y="-204.8" style="font-family:Times New Roman;font-size:14.00;">Help</text>
<polyline style="fill:none;stroke:black;" points="148,-197 202,-197 "/>
<text text-anchor="start" x="156.111" y="-179.8" style="font-family:Times New Roman;font-size:14.00;">Public</text>
</g>
<!-- index&#45;&gt;help -->
<g id="edge6" class="edge"><title>index&#45;&gt;help</title>
<path style="fill:none;stroke:black;" d="M194,-258C191,-250 188,-241 186,-232"/>
<polygon style="fill:black;stroke:black;" points="189.226,-230.573 183,-222 182.521,-232.584 189.226,-230.573"/>
</g>
<!-- login -->
<g id="node5" class="node"><title>login</title>
<polygon style="fill:none;stroke:black;" points="330,-172 330,-222 384,-222 384,-172 330,-172"/>
<text text-anchor="middle" x="357" y="-204.8" style="font-family:Times New Roman;font-size:14.00;">Login</text>
<polyline style="fill:none;stroke:black;" points="330,-197 384,-197 "/>
<text text-anchor="start" x="338.111" y="-179.8" style="font-family:Times New Roman;font-size:14.00;">Public</text>
</g>
<!-- index&#45;&gt;login -->
<g id="edge8" class="edge"><title>index&#45;&gt;login</title>
<path style="fill:none;stroke:black;" d="M240,-265C264,-253 295,-237 321,-222 321,-222 321,-222 322,-222"/>
<polygon style="fill:black;stroke:black;" points="324.1,-224.8 330,-216 319.9,-219.2 324.1,-224.8"/>
</g>
<!-- picture -->
<g id="node10" class="node"><title>picture</title>
<polygon style="fill:none;stroke:black;" points="138,-86 138,-136 194,-136 194,-86 138,-86"/>
<text text-anchor="middle" x="166" y="-118.8" style="font-family:Times New Roman;font-size:14.00;">Picture</text>
<polyline style="fill:none;stroke:black;" points="138,-111 194,-111 "/>
<text text-anchor="start" x="146.111" y="-93.8" style="font-family:Times New Roman;font-size:14.00;">Public</text>
</g>
<!-- index&#45;&gt;picture -->
<g id="edge22" class="edge"><title>index&#45;&gt;picture</title>
<path style="fill:none;stroke:black;" d="M210,-258C215,-235 221,-200 211,-172 208,-162 203,-153 197,-144"/>
<polygon style="fill:black;stroke:black;" points="199.8,-141.9 191,-136 194.2,-146.1 199.8,-141.9"/>
</g>
<!-- tags -->
<g id="node11" class="node"><title>tags</title>
<polygon style="fill:none;stroke:black;" points="258,-172 258,-222 312,-222 312,-172 258,-172"/>
<text text-anchor="middle" x="285" y="-204.8" style="font-family:Times New Roman;font-size:14.00;">Tags</text>
<polyline style="fill:none;stroke:black;" points="258,-197 312,-197 "/>
<text text-anchor="start" x="266.111" y="-179.8" style="font-family:Times New Roman;font-size:14.00;">Public</text>
</g>
<!-- index&#45;&gt;tags -->
<g id="edge24" class="edge"><title>index&#45;&gt;tags</title>
<path style="fill:none;stroke:black;" d="M226,-258C235,-249 245,-239 254,-229"/>
<polygon style="fill:black;stroke:black;" points="256.404,-231.546 261,-222 251.454,-226.596 256.404,-231.546"/>
</g>
<!-- browse&#45;&gt;picture -->
<g id="edge12" class="edge"><title>browse&#45;&gt;picture</title>
<path style="fill:none;stroke:black;" d="M59,-177C62,-175 64,-173 67,-172 88,-159 111,-145 129,-133"/>
<polygon style="fill:black;stroke:black;" points="130.958,-135.916 138,-128 127.559,-129.797 130.958,-135.916"/>
</g>
<!-- search&#45;&gt;picture -->
<g id="edge14" class="edge"><title>search&#45;&gt;picture</title>
<path style="fill:none;stroke:black;" d="M122,-172C128,-164 135,-153 142,-144"/>
<polygon style="fill:black;stroke:black;" points="144.8,-146.1 148,-136 139.2,-141.9 144.8,-146.1"/>
</g>
<!-- admin -->
<g id="node6" class="node"><title>admin</title>
<polygon style="fill:none;stroke:black;" points="330,-86 330,-136 385,-136 385,-86 330,-86"/>
<text text-anchor="middle" x="357" y="-118.8" style="font-family:Times New Roman;font-size:14.00;">Admin</text>
<polyline style="fill:none;stroke:black;" points="330,-111 385,-111 "/>
<text text-anchor="middle" x="357" y="-93.8" style="font-family:Times New Roman;font-size:14.00;"> </text>
</g>
<!-- login&#45;&gt;admin -->
<g id="edge10" class="edge"><title>login&#45;&gt;admin</title>
<path style="fill:none;stroke:black;" d="M357,-172C357,-164 357,-155 357,-146"/>
<polygon style="fill:black;stroke:black;" points="360.5,-146 357,-136 353.5,-146 360.5,-146"/>
</g>
<!-- usercontrol -->
<g id="node7" class="node"><title>usercontrol</title>
<polygon style="fill:none;stroke:black;" points="200,-0 200,-50 289,-50 289,-0 200,-0"/>
<text text-anchor="middle" x="244" y="-32.8" style="font-family:Times New Roman;font-size:14.00;">User Control</text>
<polyline style="fill:none;stroke:black;" points="200,-25 289,-25 "/>
<text text-anchor="middle" x="244" y="-7.8" style="font-family:Times New Roman;font-size:14.00;"> </text>
</g>
<!-- admin&#45;&gt;usercontrol -->
<g id="edge16" class="edge"><title>admin&#45;&gt;usercontrol</title>
<path style="fill:none;stroke:black;" d="M330,-90C317,-80 300,-68 286,-57"/>
<polygon style="fill:black;stroke:black;" points="287.831,-53.9511 278,-50 283.221,-59.2191 287.831,-53.9511"/>
</g>
<!-- picturecontrol -->
<g id="node8" class="node"><title>picturecontrol</title>
<polygon style="fill:none;stroke:black;" points="306,-0 306,-50 408,-50 408,-0 306,-0"/>
<text text-anchor="middle" x="357" y="-32.8" style="font-family:Times New Roman;font-size:14.00;">Picture Control</text>
<polyline style="fill:none;stroke:black;" points="306,-25 408,-25 "/>
<text text-anchor="middle" x="357" y="-7.8" style="font-family:Times New Roman;font-size:14.00;"> </text>
</g>
<!-- admin&#45;&gt;picturecontrol -->
<g id="edge18" class="edge"><title>admin&#45;&gt;picturecontrol</title>
<path style="fill:none;stroke:black;" d="M357,-86C357,-78 357,-69 357,-60"/>
<polygon style="fill:black;stroke:black;" points="360.5,-60 357,-50 353.5,-60 360.5,-60"/>
</g>
<!-- categorycontrol -->
<g id="node9" class="node"><title>categorycontrol</title>
<polygon style="fill:none;stroke:black;" points="426,-0 426,-50 540,-50 540,-0 426,-0"/>
<text text-anchor="middle" x="483" y="-32.8" style="font-family:Times New Roman;font-size:14.00;">Category Control</text>
<polyline style="fill:none;stroke:black;" points="426,-25 540,-25 "/>
<text text-anchor="middle" x="483" y="-7.8" style="font-family:Times New Roman;font-size:14.00;"> </text>
</g>
<!-- admin&#45;&gt;categorycontrol -->
<g id="edge20" class="edge"><title>admin&#45;&gt;categorycontrol</title>
<path style="fill:none;stroke:black;" d="M385,-92C400,-81 420,-67 437,-56"/>
<polygon style="fill:black;stroke:black;" points="439.621,-58.4592 446,-50 435.738,-52.6349 439.621,-58.4592"/>
</g>
<!-- tags&#45;&gt;picture -->
<g id="edge26" class="edge"><title>tags&#45;&gt;picture</title>
<path style="fill:none;stroke:black;" d="M258,-177C242,-165 221,-150 202,-137"/>
<polygon style="fill:black;stroke:black;" points="204.1,-134.2 194,-131 199.9,-139.8 204.1,-134.2"/>
</g>
</g>
</svg>
